<svg xmlns:xlink="http://www.w3.org/1999/xlink" viewBox="0 0 467 508" fill="none" xmlns="http://www.w3.org/2000/svg" width="467"  height="508" ><path d="M458.9 290.6C454.7 290.6 451.3 294 451.3 298.1V492.8H265.3H207.4V232.3H451.3V273C451.3 277.2 454.7 280.5 458.9 280.5C463.1 280.5 466.5 277.1 466.5 273V178C466.5 173.8 463.1 170.5 458.9 170.5H272.9V7.5C272.9 3.3 269.5 0 265.3 0H7.6C3.4 0 0 3.4 0 7.5V42.6C0 46.8 3.4 50.1 7.6 50.1C11.8 50.1 15.2 46.7 15.2 42.6V15.1H257.6V170.4H199.7C195.5 170.4 192.1 173.8 192.1 177.9V244.3H15.2V67.8C15.2 63.6 11.8 60.3 7.6 60.3C3.4 60.3 0 63.7 0 67.8V500.3C0 504.5 3.4 507.8 7.6 507.8H458.8C463 507.8 466.4 504.4 466.4 500.3V298.1C466.5 294 463.1 290.6 458.9 290.6ZM300.3 185.5H451.2V217.2H300.3V185.5ZM207.3 185.5H285.1V217.2H207.3V185.5ZM192.1 492.8H15.2V259.4H192V492.8H192.1Z" fill="#1D1D1D"></path><path d="M42.7 117.6C38.5 117.6 35.1 121 35.1 125.1V217.1C35.1 221.3 38.5 224.6 42.7 224.6C46.9 224.6 50.3 221.2 50.3 217.1V125.1C50.3 121 46.9 117.6 42.7 117.6Z" fill="#96C120"></path><path d="M42.7 279C38.5 279 35.1 282.4 35.1 286.5V378.5C35.1 382.7 38.5 386 42.7 386C46.9 386 50.3 382.6 50.3 378.5V286.5C50.3 282.4 46.9 279 42.7 279Z" fill="#96C120"></path><path d="M329.3 260.9C274.7 260.9 230.2 304.9 230.2 359C230.2 370 232 380.7 235.6 391C237 394.9 241.3 397 245.3 395.7C249.3 394.4 251.4 390.1 250 386.1C247 377.4 245.4 368.3 245.4 359C245.4 313.2 283 276 329.2 276C375.4 276 413 313.2 413 359C413 404.8 375.4 442 329.2 442C302.9 442 278.6 430.1 262.6 409.4C260 406.1 255.2 405.5 251.9 408C248.6 410.5 247.9 415.3 250.5 418.6C269.4 443.1 298.1 457.1 329.2 457.1C383.8 457.1 428.3 413.1 428.3 359C428.4 304.9 383.9 260.9 329.3 260.9Z" fill="#96C120"></path><path d="M371.4 394.6C361.1 385.6 355.2 372.6 355.2 359C355.2 345.4 361.1 332.4 371.4 323.4C373 322 374 319.9 374 317.8C374 315.7 373.1 313.6 371.4 312.2C359.8 302 344.8 296.4 329.3 296.4C294.3 296.4 265.9 324.5 265.9 359.1C265.9 393.7 294.3 421.8 329.3 421.8C344.8 421.8 359.8 416.2 371.4 406C373 404.6 374 402.5 374 400.4C374 398.3 373 396 371.4 394.6ZM354.9 399.4C347.3 404.1 338.4 406.7 329.3 406.7C302.8 406.7 281.1 385.3 281.1 359C281.1 332.7 302.7 311.3 329.3 311.3C338.4 311.3 347.3 313.8 354.9 318.6C345.4 329.8 340 344.1 340 359C340 373.8 345.3 388.1 354.9 399.4Z" fill="#96C120"></path></svg>