<svg xmlns:xlink="http://www.w3.org/1999/xlink" width="512" height="512" viewBox="0 0 512 512" fill="none" xmlns="http://www.w3.org/2000/svg"><path d="M295.5 45.7899C293.5 43.7899 290.79 42.6699 287.96 42.6699H106.67C83.14 42.6699 64 61.7999 64 85.3299V469.33C64 492.86 83.14 512 106.67 512H362.67C386.2 512 405.34 492.86 405.34 469.33V160C405.34 157.17 404.22 154.46 402.22 152.46L295.5 45.7899ZM384 469.33C384 481.09 374.43 490.66 362.67 490.66H106.67C94.91 490.66 85.34 481.09 85.34 469.33V85.3299C85.34 73.5699 94.91 63.9999 106.67 63.9999H283.55L384 164.42V469.33Z" fill="#1D1D1D"></path><path d="M128 245.33V416C128 433.65 142.35 448 160 448H309.33C326.98 448 341.33 433.65 341.33 416V245.33C341.33 227.68 326.98 213.33 309.33 213.33H160C142.35 213.33 128 227.69 128 245.33ZM192 426.67H160C154.12 426.67 149.33 421.89 149.33 416V384H192V426.67ZM256 426.67H213.33V384H256V426.67ZM320 416C320 421.89 315.22 426.67 309.33 426.67H277.33V373.34C277.33 367.44 272.56 362.67 266.66 362.67H149.33V298.67H320V416ZM277.33 234.67H309.33C315.22 234.67 320 239.45 320 245.34V277.34H277.33V234.67ZM213.33 234.67H256V277.34H213.33V234.67ZM192 277.33H149.33V245.33C149.33 239.45 154.11 234.66 160 234.66H192V277.33V277.33Z" fill="#96C120"></path><path d="M444.88 109.79L338.17 3.12C336.17 1.12 333.46 0 330.63 0H138.67C132.77 0 128 4.77 128 10.67C128 16.57 132.77 21.34 138.67 21.34H326.21L426.67 121.76V437C426.67 442.9 431.44 447.67 437.34 447.67C443.24 447.67 448 442.9 448 437V117.33C448 114.5 446.88 111.79 444.88 109.79Z" fill="#96C120"></path></svg>