<svg xmlns:xlink="http://www.w3.org/1999/xlink" width="16" height="16" viewBox="0 0 16 16" fill="none" xmlns="http://www.w3.org/2000/svg"><path d="M15 8A7 7 0 1 1 1 8a7 7 0 0 1 14 0zM5.2 8a2.8 2.8 0 1 0 5.6 0 2.8 2.8 0 0 0-5.6 0z" fill="#C4C4C4"></path><path d="M14.684 10.079a7 7 0 0 0-.265-4.872l-3.851 1.676a2.8 2.8 0 0 1 .106 1.948l4.01 1.248z" fill="#60D8E9"></path><path d="M11.739 13.918a7 7 0 0 0 2.951-3.858l-4.014-1.236a2.8 2.8 0 0 1-1.18 1.543l2.243 3.55z" fill="#9F82F2"></path><path d="M6.93 14.918a7 7 0 0 0 4.807-.999l-2.242-3.551a2.8 2.8 0 0 1-1.923.4l-.641 4.15z" fill="#B4F077"></path><path d="M2.737 12.616A7 7 0 0 0 6.95 14.92l.63-4.153a2.8 2.8 0 0 1-1.685-.922l-3.158 2.77z" fill="#85DB2F"></path><path d="M1.004 8.242a7 7 0 0 0 1.784 4.431l3.127-2.804a2.8 2.8 0 0 1-.713-1.772l-4.198.145z" fill="#62A420"></path><path d="M2.44 3.747a7 7 0 0 0-1.433 4.557l4.196-.183A2.8 2.8 0 0 1 5.776 6.3L2.44 3.747z" fill="#FF4444"></path><path d="M6.41 1.183A7 7 0 0 0 2.408 3.79l3.355 2.526a2.8 2.8 0 0 1 1.601-1.043l-.954-4.09z" fill="#E82626"></path><path d="M11.134 1.74a7 7 0 0 0-4.745-.552l.967 4.087a2.8 2.8 0 0 1 1.898.221l1.88-3.755z" fill="#960707"></path><path d="M14.42 5.21a7 7 0 0 0-3.284-3.468L9.254 5.497a2.8 2.8 0 0 1 1.314 1.387l3.852-1.673z" fill="#085F9E"></path></svg>