<svg xmlns:xlink="http://www.w3.org/1999/xlink" viewBox="0 0 512 512" fill="none" xmlns="http://www.w3.org/2000/svg" width="512"  height="512" ><path d="M119.5 228.7H64.9C57.4 228.7 51.2 222.6 51.2 215C51.2 207.5 57.3 201.3 64.9 201.3H119.5C127 201.3 133.2 207.4 133.2 215C133.1 222.6 127 228.7 119.5 228.7Z" fill="#96C120"></path><path d="M78.5 187.7H51.2C43.7 187.7 37.5 181.6 37.5 174C37.5 166.4 43.6 160.3 51.2 160.3H78.5C86 160.3 92.2 166.4 92.2 174C92.2 181.6 86.1 187.7 78.5 187.7Z" fill="#96C120"></path><path d="M242.3 133.1H105.8C98.3 133.1 92.1 127 92.1 119.4C92.1 111.8 98.2 105.7 105.8 105.7H242.3C249.8 105.7 256 111.8 256 119.4C256 127 249.9 133.1 242.3 133.1Z" fill="#96C120"></path><path d="M92.2 351.6H78.5C71 351.6 64.8 345.5 64.8 337.9C64.8 330.3 70.9 324.2 78.5 324.2H92.2C99.7 324.2 105.9 330.3 105.9 337.9C105.9 345.5 99.7 351.6 92.2 351.6Z" fill="#96C120"></path><path d="M438 146.8H155.9C135.8 146.8 119.4 163.2 119.4 183.3V242.4H78.4C70.9 242.4 64.7 248.5 64.7 256.1C64.7 263.6 70.8 269.8 78.4 269.8H119.4V283.5H51.2C43.7 283.5 37.5 289.6 37.5 297.2C37.5 304.8 43.6 310.9 51.2 310.9H119.5V370C119.5 373.2 120 376.2 120.8 379.2H64.9C57.4 379.2 51.2 385.3 51.2 392.9C51.2 400.5 57.3 406.6 64.9 406.6H146.8C147.9 406.6 148.8 406.2 149.9 406C151.9 406.3 153.9 406.6 156 406.6H438C458.1 406.6 474.5 390.2 474.5 370.1V183.2C474.5 163.1 458.1 146.8 438 146.8ZM297 279.2L170.8 174.1H423L297 279.2ZM247 273.1C247 273.1 246.9 273.1 247 273.1L146.8 362.2V189.6L247 273.1ZM265.1 293.5C266.2 292.6 266.9 291.4 267.6 290.2L288.3 307.4C290.8 309.5 293.9 310.6 297 310.6C300.1 310.6 303.2 309.5 305.7 307.4L326.5 290L425.2 378.8H169L265.1 293.5ZM347.7 272.4L447.1 189.6V361.9L347.7 272.4Z" fill="#FFFFFF"></path><path d="M283.3 133.1H310.6C318.1 133.1 324.3 127 324.3 119.4C324.3 111.8 318.2 105.7 310.6 105.7H283.3C275.8 105.7 269.6 111.8 269.6 119.4C269.6 127 275.8 133.1 283.3 133.1Z" fill="#FFFFFF"></path></svg>