<svg xmlns:xlink="http://www.w3.org/1999/xlink" viewBox="0 0 512 512" fill="none" xmlns="http://www.w3.org/2000/svg" width="512"  height="512" ><g clip-path="url(#clip0)" fill="none"><path d="M488.4 458.8L420.9 391.3C417 387.4 411.7 385.2 406.1 385.2C402.8 385.2 399.7 386 396.8 387.4L379.5 370.1C393.5 354 402 332.9 402 309.9C402 259.1 360.7 217.9 310 217.9C259.3 217.9 218 259.2 218 309.9C218 360.6 259.3 401.9 310 401.9C333 401.9 354 393.4 370.2 379.4L387.5 396.7C386.1 399.6 385.3 402.7 385.3 406C385.3 411.6 387.5 416.8 391.4 420.8L458.9 488.3C462.8 492.2 468.1 494.4 473.7 494.4C479.3 494.4 484.5 492.2 488.5 488.3C492.4 484.4 494.6 479.1 494.6 473.5C494.6 467.9 492.3 462.8 488.4 458.8ZM231.2 309.9C231.2 266.5 266.5 231.2 309.9 231.2C353.3 231.2 388.6 266.5 388.6 309.9C388.6 353.3 353.3 388.6 309.9 388.6C266.5 388.6 231.2 353.4 231.2 309.9ZM398.5 406.1C398.5 404.1 399.3 402.2 400.7 400.7C402.1 399.3 404 398.5 406.1 398.5C408.1 398.5 410 399.3 411.5 400.7L417.4 406.6L406.7 417.3L400.8 411.4C399.3 410 398.5 408.1 398.5 406.1ZM479 479C477.6 480.4 475.7 481.2 473.6 481.2C471.5 481.2 469.7 480.4 468.2 479L416 426.7L426.7 416L478.9 468.2C480.3 469.6 481.1 471.5 481.1 473.6C481.1 475.7 480.4 477.5 479 479Z" fill="#96C120" stroke="#96C120" stroke-width="8px" stroke-miterlimit="10"></path><path d="M309.9 246.4C298.6 246.4 287.4 249.5 277.6 255.3C274.4 257.2 273.4 261.3 275.3 264.4C277.2 267.6 281.3 268.6 284.4 266.7C292.2 262.1 301 259.7 309.9 259.7C337.6 259.7 360.2 282.3 360.2 310C360.2 318.9 357.8 327.7 353.2 335.5C351.3 338.7 352.4 342.7 355.5 344.6C356.6 345.2 357.7 345.5 358.9 345.5C361.2 345.5 363.4 344.3 364.6 342.2C370.4 332.4 373.5 321.2 373.5 309.9C373.5 274.9 345 246.4 309.9 246.4Z" fill="#96C120" stroke="#96C120" stroke-width="2px" stroke-miterlimit="10"></path><path d="M335.4 353.2C327.6 357.8 318.8 360.2 309.9 360.2C282.2 360.2 259.6 337.6 259.6 309.9C259.6 301 262 292.2 266.6 284.4C268.5 281.2 267.4 277.2 264.3 275.3C261.1 273.4 257.1 274.5 255.2 277.6C249.4 287.4 246.3 298.6 246.3 309.9C246.3 345 274.8 373.5 309.9 373.5C321.2 373.5 332.4 370.4 342.2 364.6C345.4 362.7 346.4 358.6 344.5 355.5C342.7 352.4 338.6 351.3 335.4 353.2Z" fill="#96C120" stroke="#96C120" stroke-width="2px" stroke-miterlimit="10"></path><path d="M111.7 239.5H195.4C199.5 239.5 202.9 236.1 202.9 232C202.9 227.9 199.5 224.5 195.4 224.5H111.7C76.1 224.5 47.1 195.5 47.1 159.9V63.1H400.8V159.8C400.8 174.8 395.8 188.8 386.4 200.4C383.8 203.6 384.3 208.3 387.5 210.9C388.9 212 390.6 212.6 392.2 212.6C394.4 212.6 396.6 211.6 398 209.8C409.4 195.7 415.7 177.9 415.7 159.7V63.1H416.2C425.3 63.1 432.7 70.5 432.7 79.6V336.1C432.7 343.1 428.3 349.4 421.7 351.7C417.8 353.1 415.7 357.4 417.1 361.3C418.5 365.2 422.8 367.3 426.7 365.9C439.3 361.5 447.7 349.5 447.7 336.1V79.6C447.7 62.2 433.5 48.1 416.2 48.1H301.5L290.8 16.1C287.6 6.5 278.6 0 268.5 0H179.4C169.3 0 160.3 6.5 157.1 16.1L146.4 48.1H31.5C14.2 48.1 0 62.2 0 79.6V336.1C0 353.5 14.2 367.6 31.5 367.6H183.8C187.9 367.6 191.3 364.2 191.3 360.1C191.3 356 187.9 352.6 183.8 352.6H31.5C22.4 352.6 15 345.2 15 336.1V79.6C15 70.5 22.4 63.1 31.5 63.1H32V159.8C32.1 203.7 67.8 239.5 111.7 239.5ZM171.3 20.8C172.5 17.3 175.7 15 179.4 15H268.5C272.2 15 275.4 17.3 276.6 20.8L285.7 48.1H162.2L171.3 20.8Z" fill="#FFFFFF" stroke="#FFFFFF" stroke-width="10px" stroke-miterlimit="10"></path><path d="M191.9 144.3C183.3 144.3 176.4 151.3 176.4 159.8V175.8C176.4 184.4 183.4 191.3 191.9 191.3H256C264.6 191.3 271.5 184.3 271.5 175.8V159.8C271.5 151.2 264.5 144.3 256 144.3H191.9ZM256.5 159.8V175.8C256.5 176.1 256.3 176.3 256 176.3H191.9C191.6 176.3 191.4 176.1 191.4 175.8V159.8C191.4 159.5 191.6 159.3 191.9 159.3H256C256.3 159.3 256.5 159.5 256.5 159.8Z" fill="#FFFFFF"></path></g><defs><clipPath id="clip0"><rect width="512" height="512" fill="white"></rect></clipPath></defs></svg>