<svg xmlns:xlink="http://www.w3.org/1999/xlink" viewBox="0 0 512 512" fill="none" xmlns="http://www.w3.org/2000/svg" width="512"  height="512" ><path d="M290.1 78.5C271.3 78.5 253 81.5 235.5 87.1V51.2C235.5 43.7 229.4 37.5 221.8 37.5C120.7 37.5 44.4 131.5 44.4 256C44.4 288.9 49.6 319.9 59.7 348.3C62.2 355.4 70 359.1 77.2 356.5C84.3 354 88 346.1 85.4 339C76.3 313.6 71.7 285.7 71.7 255.9C71.7 152.8 129.5 73.7 208.2 65.5V107.4V146.7H182.5C159 146.7 139.9 165.8 139.9 189.3V322.5C139.9 346 159 365.1 182.5 365.1H208.2V404.4V404.5V446.3C167.1 441.9 129.9 417.8 104.8 378.6C100.7 372.2 92.3 370.4 85.9 374.5C79.6 378.6 77.7 387 81.8 393.4C114.8 444.9 165.9 474.4 221.9 474.4C229.4 474.4 235.6 468.3 235.6 460.7V424.8C253.1 430.5 271.4 433.4 290.2 433.4C388.1 433.4 467.7 353.8 467.7 255.9C467.7 158 388 78.5 290.1 78.5ZM290.1 406.2C271.1 406.2 252.9 402.5 235.5 395.7V351.6C235.5 344.1 229.4 337.9 221.8 337.9H182.5C174.1 337.9 167.2 331 167.2 322.6V189.4C167.2 181 174.1 174.1 182.5 174.1H221.8C229.3 174.1 235.5 168 235.5 160.4V116.3C252.9 109.5 271.2 105.8 290.1 105.8C372.9 105.8 440.3 173.2 440.3 256C440.3 338.8 372.9 406.2 290.1 406.2Z" fill="#FFFFFF"></path><path d="M227.38 299.68L204.46 218.64H218.47L235.49 281.96L253.9 218.64H266.17L284.46 281.96L301.48 218.64H315.49L292.57 299.68H277.17L260.04 240.52L242.79 299.68H227.38Z" fill="#96C120"></path><path d="M378.57 218.64V231.37H355.76V299.67H342.45V231.37H319.53V218.64H378.57V218.64Z" fill="#96C120"></path></svg>