<svg xmlns:xlink="http://www.w3.org/1999/xlink" viewBox="0 0 512 512" fill="none" xmlns="http://www.w3.org/2000/svg" width="512"  height="512" ><path d="M310.6 464.2C303.1 464.2 296.9 458.1 296.9 450.5V300.4H215V450.6C215 458.1 208.9 464.3 201.3 464.3C193.7 464.3 187.6 458.2 187.6 450.6V286.7C187.6 279.2 193.7 273 201.3 273H310.5C318 273 324.2 279.1 324.2 286.7V450.5C324.3 458.1 318.2 464.2 310.6 464.2Z" fill="#96C120"></path><path d="M455.5 206.1L278 55.9C265.2 45.1 246.7 45.1 233.9 55.9L56.5 206.1C49.5 212 45.3 220.2 44.5 229.3C43.7 238.4 46.6 247.2 52.4 254.2C58.3 261.2 66.6 265.4 75.7 266.2C76.7 266.3 77.6 266.3 78.6 266.3C79 266.3 79.4 266.2 79.9 266.2L92.3 451.5C92.8 458.7 98.7 464.2 105.9 464.2H406.3C413.5 464.2 419.4 458.6 419.9 451.5L432.3 265.7C442.5 266 452.9 262.1 459.6 254.1C465.5 247.1 468.3 238.3 467.6 229.2C466.7 220.2 462.5 211.9 455.5 206.1ZM118.6 436.9L106.4 253.3L256 126.6L405.7 253.2L393.5 436.8H118.6V436.9ZM438.7 236.5C436.7 238.9 433.4 241 429.1 237.3L264.8 98.3C259.7 94 252.2 94 247.2 98.3L82.9 237.3C81 238.9 79 239 78 238.9C76.9 238.8 74.9 238.4 73.3 236.5C71.7 234.6 71.6 232.6 71.7 231.5C71.8 230.4 72.2 228.4 74.1 226.8L251.6 76.7C252.9 75.6 254.5 75.1 256 75.1C257.5 75.1 259.1 75.6 260.4 76.7L437.9 226.9C439.8 228.5 440.2 230.5 440.3 231.6C440.4 232.6 440.3 234.7 438.7 236.5Z" fill="#FFFFFF"></path><path d="M283.3 396C275.8 396 269.6 389.9 269.6 382.3V368.6C269.6 361.1 275.7 354.9 283.3 354.9C290.9 354.9 297 361 297 368.6V382.3C297 389.9 290.9 396 283.3 396Z" fill="#96C120"></path><path d="M447.98 464.3H365.48C357.93 464.3 351.68 458.16 351.68 450.5C351.68 442.84 357.82 436.7 365.48 436.7H447.98C455.53 436.7 461.78 442.84 461.78 450.5C461.78 458.16 455.63 464.3 447.98 464.3Z" fill="#FFFFFF"></path></svg>