<svg xmlns:xlink="http://www.w3.org/1999/xlink" viewBox="0 0 30 30" fill="none" xmlns="http://www.w3.org/2000/svg" width="30"  height="30" ><path d="M16.998 4.6a10.47 10.47 0 0 0-3.2.504V3a.804.804 0 0 0-.802-.803C7.072 2.197 2.602 7.705 2.602 15c0 1.928.304 3.744.896 5.408a.795.795 0 0 0 1.025.48.797.797 0 0 0 .48-1.025c-.532-1.488-.802-3.123-.802-4.869 0-6.04 3.387-10.676 7.998-11.156v4.758h-1.506a2.498 2.498 0 0 0-2.496 2.496v7.804a2.498 2.498 0 0 0 2.496 2.497H12.2v4.758c-2.408-.258-4.588-1.67-6.058-3.967a.798.798 0 0 0-1.108-.24.803.803 0 0 0-.24 1.107c1.934 3.017 4.928 4.746 8.209 4.746.44 0 .803-.358.803-.803v-2.103c1.025.334 2.097.504 3.199.504 5.736 0 10.4-4.665 10.4-10.4 0-5.737-4.67-10.395-10.406-10.395zm0 19.2a8.727 8.727 0 0 1-3.2-.614v-2.584a.804.804 0 0 0-.802-.803h-2.303a.9.9 0 0 1-.896-.897v-7.804a.9.9 0 0 1 .896-.897h2.303c.44 0 .803-.357.803-.803V6.814a8.751 8.751 0 0 1 3.2-.615c4.85 0 8.8 3.95 8.8 8.801 0 4.852-3.95 8.8-8.8 8.8z" fill="#1D1D1B"></path><path d="M13.323 17.56l-1.343-4.75h.821l.997 3.711 1.079-3.71h.719l1.072 3.71.997-3.71h.82l-1.342 4.748h-.903l-1.003-3.466-1.011 3.466h-.903zM22.182 12.81v.747h-1.337v4.002h-.78v-4.002h-1.343v-.746h3.46z" fill="#96C120"></path></svg>