<svg xmlns:xlink="http://www.w3.org/1999/xlink" class="cursor-pointer" width="149" height="45" viewBox="0 0 149 45" fill="none" xmlns="http://www.w3.org/2000/svg"><path d="M136.211 27.267h3.542v-.82l-1.11-.105V21.84c.574-.279 1.23-.584 1.778-.584 1.108 0 1.201.595 1.201 1.405v4.605h2.432v-.82l-1.11-.105V21.84l.36-.16c.439-.197 1.043-.424 1.43-.424 1.122 0 1.174.621 1.174 1.457v4.553h2.432v-.82l-1.107-.105v-4.133c0-.728-.188-1.27-.548-1.602-.308-.278-.762-.409-1.351-.409-.814 0-1.684.331-2.604.848-.267-.49-.762-.848-1.632-.848-.788 0-1.538.212-2.604.833v-.714h-2.274v.807l1.096.104v5.11l-1.11.105v.824h.005zm-6.615-3.482c0-1.68.668-2.792 2.098-2.792 1.403 0 2.086 1.112 2.086 2.792 0 1.669-.683 2.78-2.086 2.78-1.43 0-2.098-1.111-2.098-2.78zm-1.456 0c0 2.435 1.31 3.628 3.554 3.628 2.244 0 3.542-1.179 3.542-3.628 0-2.45-1.31-3.64-3.542-3.64-2.244 0-3.554 1.19-3.554 3.64zm-7.335-.119c0 2.502 1.201 3.732 3.767 3.732 1.055 0 1.91-.16 2.218-.226v-.86c-.349.067-1.216.227-1.978.227-1.872 0-2.551-.966-2.551-2.859 0-1.906 1.002-2.672 2.513-2.672.534 0 .909.078 1.055.119l.147 1.52h.867V20.41c-.627-.119-1.216-.238-2.324-.238-2.446 0-3.714 1.23-3.714 3.494zm-6.533-.316c0-1.417.533-2.368 1.843-2.368 1.376 0 1.91 1.111 1.91 2.368h-3.753zm-1.497.316c0 2.475 1.122 3.747 3.849 3.747.815 0 1.629-.079 2.285-.239v-.82a9.697 9.697 0 0 1-1.936.211c-1.216 0-2.578-.119-2.725-2.409h5.25v-.237c0-2.398-1.028-3.759-3.392-3.759-1.89-.003-3.331 1.057-3.331 3.506zm-4.503 3.601h3.542v-.82l-1.11-.105V17.22h-2.42v.821l1.095.104v8.193l-1.11.104v.824h.003zm-6.187-3.917c0-1.417.533-2.368 1.845-2.368 1.377 0 1.91 1.111 1.91 2.368h-3.755zm-1.497.316c0 2.475 1.122 3.747 3.849 3.747.815 0 1.629-.079 2.285-.239v-.82a9.697 9.697 0 0 1-1.936.211c-1.216 0-2.578-.119-2.725-2.409h5.25v-.237c0-2.398-1.028-3.759-3.395-3.759-1.884-.003-3.328 1.057-3.328 3.506zm-4.368 1.88c0 1.376.6 1.721 2.056 1.721h1.257v-.9h-.908c-.747 0-1.055-.104-1.055-1.006v-4.144h2.03v-.9h-2.03v-2.475l-1.35.371v2.104h-1.471v.9h1.47v4.33zm-7.913-1.84c0-1.1.24-2.222 1.778-2.222.44 0 .815.052.908.093v4.382h-.908c-1.388-.003-1.778-.929-1.778-2.252zm-2.417.038c0 2.424 1.362 3.52 3.914 3.52h4.637v-1.192l-1.189-.105v-8.746h-3.433v1.192l1.174.105v1.773c-.199-.04-.761-.093-1.418-.093-2.417 0-3.685 1.178-3.685 3.546zm-5.572 3.523h4.623v-1.192l-1.19-.105v-8.75h-3.433v1.193l1.175.105v7.452l-1.175.105v1.192zm-7.163 0h4.623v-1.192l-1.19-.105v-3.787c.413-.316 1.137-.557 1.67-.62l.135 1.39h1.377v-2.74c-1.23 0-2.338.145-3.46.795v-.688h-3.155v1.193l1.175.107v4.356l-1.175.105v1.186zm-6.6-3.494c0-1.323.225-2.368 1.59-2.368 1.377 0 1.603 1.045 1.603 2.368 0 1.312-.229 2.357-1.603 2.357-1.365-.003-1.59-1.048-1.59-2.357zm-2.42 0c0 2.7 1.632 3.654 4.007 3.654 2.391 0 4.023-.952 4.023-3.654 0-2.701-1.63-3.653-4.023-3.653-2.375 0-4.007.952-4.007 3.653zM52.91 27.267h3.062l1.002-4.326h.2l.96 4.326h3.02l1.389-5.653.923-.107v-1.193H61.17l-1.23 5.189h-.188l-1.23-5.189h-2.54l-1.19 5.163h-.187l-1.23-5.163h-2.78v1.193l.922.107 1.394 5.653z" fill="#1D1E1B"></path><path fill-rule="evenodd" clip-rule="evenodd" d="M22.555.63c12.27 0 22.215 9.85 22.215 22s-9.946 22-22.215 22S.34 34.78.34 22.63c.003-12.148 9.949-22 22.215-22z" fill="#FFFFFF"></path><path fill-rule="evenodd" clip-rule="evenodd" d="M22.558 38.991c-9.129 0-16.529-7.333-16.529-16.373 0-9.04 7.4-16.37 16.529-16.37s16.526 7.33 16.526 16.37c0 9.043-7.397 16.373-16.526 16.373z" fill="#E30613"></path><path fill-rule="evenodd" clip-rule="evenodd" d="M28.47 24.9c0 1.77.75 2.144 2.558 2.144h2.02v-1.41h-.98c-.868 0-1.143-.23-1.143-1.138V20.9h2.282v-1.41h-2.282v-2.763l-2.455.418v2.345H26.91v1.41h1.559v4zM35.12 28.077a14.684 14.684 0 0 1-12.433 6.828c-5.241 0-9.84-2.724-12.43-6.828h1.151c2.256 2.74 7.435 4.49 11.279 4.49 3.843 0 9.026-1.748 11.282-4.49h1.151zM14.575 27.044h3.307l1.084-4.704h.217l1.04 4.704h3.264L24.99 20.9l.996-.116V19.49H23.5l-1.327 5.642h-.202l-1.33-5.642H17.9l-1.286 5.613h-.202l-1.33-5.613h-3.003v1.294l.996.116 1.5 6.144z" fill="#FFFFFF"></path><path fill-rule="evenodd" clip-rule="evenodd" d="M10.257 16.983a14.676 14.676 0 0 1 12.43-6.826c5.241 0 9.84 2.725 12.433 6.826H33.97c-2.256-2.737-7.436-4.487-11.282-4.487-3.844 0-9.023 1.75-11.279 4.487h-1.151z" fill="#FFFFFF"></path><path fill-rule="evenodd" clip-rule="evenodd" d="M22.54 5.006c9.812 0 17.768 7.888 17.768 17.615 0 9.728-7.953 17.615-17.768 17.615-9.81 0-17.768-7.887-17.768-17.615.003-9.73 7.957-17.615 17.768-17.615zM22.555.63c12.27 0 22.215 9.85 22.215 22s-9.946 22-22.215 22S.34 34.78.34 22.63c.003-12.148 9.949-22 22.215-22z" fill="#95C11F"></path></svg>