<svg xmlns:xlink="http://www.w3.org/1999/xlink" width="24" height="24" viewBox="0 0 24 24" fill="none" xmlns="http://www.w3.org/2000/svg"><path fill-rule="evenodd" clip-rule="evenodd" d="M12.235 4.04c1.626-1.029 3.786-1.313 5.652-.715 4.059 1.31 5.319 5.734 4.192 9.255-1.74 5.53-9.166 9.655-9.481 9.828a.743.743 0 0 1-.72.002c-.312-.17-7.685-4.235-9.482-9.829h-.001c-1.128-3.523.128-7.949 4.183-9.256a6.729 6.729 0 0 1 5.657.714zm-5.197.713c-3.281 1.058-4.105 4.587-3.214 7.37 1.402 4.362 6.94 7.89 8.413 8.762 1.477-.882 7.056-4.448 8.413-8.758.89-2.786.064-6.315-3.222-7.374-1.592-.51-3.45-.2-4.731.792a.75.75 0 0 1-.91.006 5.234 5.234 0 0 0-4.75-.798z" fill="#FFFFFF"></path></svg>